<svg width="204" height="25" viewBox="0 0 204 25" fill="none" xmlns="http://www.w3.org/2000/svg">
<g clip-path="url(#clip0_1381_11)">
<path d="M5.01936 0.550293L14.6059 15.9626H14.6737V0.550293H19.3991V23.5218H14.3496L4.79326 8.13961H4.73297V23.5218H0V0.550293H5.01936Z" fill="#1D1D1B"/>
<path d="M23.6197 7.35568C24.0998 5.94191 24.8526 4.63604 25.8354 3.51202C26.8173 2.40187 28.0319 1.52182 29.3927 0.934502C32.438 -0.3115 35.851 -0.3115 38.8963 0.934502C40.2503 1.52606 41.4591 2.40566 42.4385 3.51202C43.4213 4.63604 44.1741 5.94191 44.6543 7.35568C45.1766 8.89365 45.4315 10.5098 45.4079 12.1339C45.4298 13.7258 45.1747 15.3095 44.6543 16.8141C44.1725 18.2045 43.4194 19.4854 42.4385 20.5824C41.4545 21.6705 40.2459 22.532 38.8963 23.1071C35.8471 24.3332 32.4419 24.3332 29.3927 23.1071C28.0364 22.536 26.8221 21.6741 25.8354 20.5824C24.8545 19.4854 24.1014 18.2045 23.6197 16.8141C23.0992 15.3095 22.8442 13.7258 22.866 12.1339C22.8424 10.5098 23.0973 8.89365 23.6197 7.35568ZM28.232 14.945C28.4446 15.8231 28.8093 16.6572 29.3098 17.4095C29.8044 18.1377 30.4659 18.7372 31.2391 19.158C32.1428 19.5945 33.1334 19.8212 34.137 19.8212C35.1405 19.8212 36.1311 19.5945 37.0348 19.158C37.808 18.7372 38.4695 18.1377 38.9641 17.4095C39.4646 16.6572 39.8294 15.8231 40.0419 14.945C40.2691 14.0253 40.383 13.0812 40.381 12.1339C40.3838 11.1467 40.27 10.1626 40.0419 9.20212C39.8338 8.30374 39.469 7.44907 38.9641 6.67737C38.4705 5.94241 37.8092 5.33538 37.0348 4.90629C36.1298 4.47454 35.1397 4.25047 34.137 4.25047C33.1342 4.25047 32.1442 4.47454 31.2391 4.90629C30.4647 5.33538 29.8034 5.94241 29.3098 6.67737C28.805 7.44907 28.4401 8.30374 28.232 9.20212C28.0039 10.1626 27.8901 11.1467 27.8929 12.1339C27.8909 13.0812 28.0048 14.0253 28.232 14.945Z" fill="#1D1D1B"/>
<path d="M59.6821 0.550361C60.6941 0.541549 61.7044 0.637505 62.6967 0.836731C63.5217 1.00188 64.3073 1.32429 65.0104 1.78635C65.6581 2.22946 66.1779 2.83505 66.5177 3.54238C66.8949 4.39041 67.0753 5.31281 67.0453 6.24047C67.0829 7.26564 66.8068 8.27788 66.254 9.14205C65.6608 9.97135 64.8568 10.627 63.9252 11.0413C65.2013 11.3511 66.3242 12.1077 67.0905 13.1741C67.7048 14.1704 68.0609 15.3041 68.1267 16.4726C68.1925 17.6412 67.9659 18.8077 67.4674 19.8666C67.034 20.6955 66.4087 21.4087 65.6435 21.9467C64.8532 22.4927 63.9731 22.8958 63.0434 23.1375C62.0592 23.3945 61.046 23.5237 60.0288 23.5218H48.8445V0.550361H59.6821ZM59.0339 9.85049C59.8259 9.88278 60.6067 9.65515 61.2572 9.20233C61.5607 8.95122 61.7983 8.62979 61.9494 8.26597C62.1004 7.90214 62.1603 7.50695 62.1239 7.11471C62.1411 6.65797 62.0426 6.2043 61.8375 5.79581C61.6606 5.46615 61.4008 5.18823 61.0839 4.98939C60.7433 4.78713 60.3673 4.65157 59.976 4.58995C59.5457 4.51333 59.1093 4.4755 58.6722 4.47691H53.9467V9.85049H59.0339ZM59.3279 19.5953C59.8039 19.5981 60.2789 19.5501 60.7447 19.4521C61.1676 19.3647 61.5711 19.2013 61.9355 18.9698C62.2798 18.7366 62.5598 18.4204 62.7495 18.0503C62.9752 17.581 63.0813 17.0632 63.0585 16.543C63.1052 16.0734 63.0393 15.5994 62.8663 15.1603C62.6933 14.7212 62.4181 14.3297 62.0636 14.0182C61.2913 13.4834 60.3641 13.2185 59.4258 13.2646H53.9241V19.5727L59.3279 19.5953Z" fill="#1D1D1B"/>
<path d="M76.5716 0.550293V19.241H87.7634V23.4916H71.5221V0.550293H76.5716Z" fill="#1D1D1B"/>
<path d="M107.773 0.550293V4.79337H95.6467V9.72229H106.778V13.6413H95.6467V19.241H108.037V23.4916H90.5972V0.550293H107.773Z" fill="#1D1D1B"/>
<path d="M130.104 15.4728H124.014L122.062 18.4874C121.422 19.4672 121.037 20.0927 120.902 20.3716C120.768 20.6329 120.698 20.9222 120.698 21.2157C120.698 22.2406 121.452 22.7757 122.959 22.821H123.479L123.261 23.5746H115.792L116.018 22.821C116.957 22.7714 117.854 22.4168 118.573 21.8111C119.69 20.6718 120.671 19.4073 121.497 18.0428L132.335 1.84668H133.435L132.681 19.113L132.591 21.0273C132.555 21.2915 132.592 21.5606 132.698 21.8051C132.804 22.0497 132.976 22.2603 133.194 22.414C133.814 22.6913 134.489 22.8253 135.169 22.8059L134.942 23.5596H126.584L126.81 22.8059C127.595 22.8658 128.38 22.6983 129.071 22.3235C129.433 22.0727 129.684 21.6921 129.772 21.2609C129.84 20.8464 129.908 20.0626 129.961 18.9095L130.104 15.4728ZM130.142 14.7191L130.549 5.62249L124.482 14.7191H130.142Z" fill="#1D1D1B"/>
<path d="M155.992 21.7582L156.339 22.5118C155.331 23.3366 154.076 23.8008 152.774 23.8307C152.262 23.8702 151.747 23.7916 151.27 23.6008C150.793 23.41 150.367 23.1122 150.023 22.7304C149.325 21.7068 148.993 20.477 149.081 19.2409V17.9522C149.14 16.9055 149.012 15.8566 148.704 14.8546C148.525 14.3265 148.15 13.887 147.657 13.6262C146.96 13.3823 146.223 13.2774 145.486 13.3172H144.732L142.848 19.4746C142.633 20.0766 142.474 20.6972 142.374 21.3286C142.357 21.5697 142.413 21.8104 142.536 22.0189C142.658 22.2273 142.841 22.3939 143.059 22.4967C143.528 22.7266 144.045 22.8428 144.567 22.8359H145.004L144.785 23.5895H136.171L136.389 22.8359H136.736C137.307 22.8519 137.873 22.7305 138.387 22.4817C138.769 22.3099 139.089 22.026 139.306 21.6677C139.606 21.0084 139.858 20.3284 140.06 19.6328L144.175 6.067C144.396 5.42343 144.552 4.75947 144.642 4.0849C144.647 3.91724 144.606 3.75134 144.524 3.60522C144.442 3.45909 144.321 3.33829 144.175 3.25587C143.593 3.01722 142.963 2.9191 142.336 2.96948L142.554 2.21582H148.131C149.684 2.21582 150.845 2.26104 151.613 2.33641C152.441 2.43066 153.243 2.68673 153.972 3.09007C154.733 3.48199 155.376 4.06997 155.834 4.79332C156.272 5.50129 156.5 6.3196 156.489 7.15227C156.497 7.94223 156.319 8.72291 155.971 9.4321C155.623 10.1413 155.114 10.7594 154.485 11.2371C153.153 12.3224 151.031 12.9077 148.116 12.9931C149.403 13.3677 150.526 14.164 151.304 15.2541C151.975 16.4859 152.32 17.8686 152.307 19.2711C152.284 20.1682 152.425 21.0619 152.721 21.9089C152.836 22.1357 153.017 22.3221 153.241 22.4432C153.464 22.5644 153.72 22.6146 153.972 22.5872C154.71 22.5061 155.41 22.2188 155.992 21.7582ZM144.966 12.6012H145.599C148.277 12.6012 150.287 12.0988 151.628 11.0939C152.283 10.5898 152.806 9.9355 153.153 9.18642C153.501 8.43733 153.663 7.61551 153.626 6.79053C153.665 6.24264 153.576 5.69305 153.364 5.18631C153.151 4.67958 152.823 4.22995 152.405 3.87385C151.327 3.15545 150.041 2.81606 148.749 2.90917C148.501 2.90917 148.229 2.90917 147.935 2.90917L144.966 12.6012Z" fill="#1D1D1B"/>
<path d="M171.532 3.57224L166.717 19.4367C166.498 20.0419 166.344 20.6684 166.257 21.3058C166.245 21.5422 166.304 21.7767 166.426 21.9794C166.548 22.1821 166.728 22.3438 166.943 22.4438C167.41 22.68 167.927 22.8014 168.45 22.7981H169.015L168.797 23.5517H159.692L159.911 22.7981H160.386C160.967 22.8139 161.544 22.6979 162.074 22.4589C162.477 22.2842 162.82 21.9962 163.061 21.6299C163.395 20.9346 163.665 20.2107 163.868 19.4669L168.774 3.41398C167.031 3.25823 165.553 3.17783 164.343 3.17281C163.342 3.13449 162.341 3.24626 161.373 3.50442C160.71 3.72298 160.386 4.05459 160.386 4.49171C160.4 4.73556 160.456 4.97515 160.552 5.20015C160.639 5.41154 160.692 5.63536 160.71 5.86337C160.715 6.00307 160.691 6.14228 160.639 6.27208C160.587 6.40187 160.508 6.51937 160.408 6.61703C160.285 6.72566 160.14 6.80786 159.984 6.85857C159.827 6.90928 159.662 6.92744 159.498 6.91191C159.335 6.89638 159.176 6.84748 159.032 6.76825C158.887 6.68903 158.761 6.58114 158.66 6.45122C158.439 6.14441 158.322 5.77435 158.328 5.39611C158.355 4.93921 158.499 4.49694 158.747 4.11253C158.996 3.72813 159.34 3.41473 159.745 3.20296C160.695 2.58496 162.36 2.26843 164.75 2.26843C165.975 2.26843 168.299 2.41161 171.721 2.698C174.178 2.90149 176.009 3.007 177.238 3.007C178.466 3.007 179.061 2.69802 179.182 2.08002C179.273 1.6429 179.491 1.42432 179.845 1.42432C180.35 1.42432 180.599 1.68812 180.599 2.22321C180.599 3.36877 179.393 3.93401 176.974 3.93401C175.823 3.89884 174.009 3.77824 171.532 3.57224Z" fill="#1D1D1B"/>
<path d="M204 12.7744V16.701H180.192V12.7744H204Z" fill="#1D1D1B"/>
</g>
<defs>
<clipPath id="clip0_1381_11">
<rect width="204" height="24.0341" fill="white"/>
</clipPath>
</defs>
</svg>
